Decovar-Regular24DB01:01:17.ufo
<glyph name="plus" format="1">
  <advance width="1040"/>
  <unicode hex="002B"/>
  <outline>
    <contour>
      <point x="442" y="230" type="line"/>
      <point x="442" y="1130" type="line"/>
      <point x="598" y="1130" type="line"/>
      <point x="598" y="230" type="line"/>
    </contour>
    <contour>
      <point x="70" y="604" type="line"/>
      <point x="70" y="756" type="line"/>
      <point x="970" y="756" type="line"/>
      <point x="970" y="604" type="line"/>
    </contour>
  </outline>
</glyph>
<glyph name="hyphen" format="1">
  <advance width="1122"/>
  <unicode hex="002D"/>
  <outline>
    <contour>
      <point x="104" y="623" type="line"/>
      <point x="104" y="700" type="line"/>
      <point x="1018" y="700" type="line"/>
      <point x="1018" y="623" type="line"/>
    </contour>
    <contour>
      <point x="104" y="700" type="line"/>
      <point x="104" y="777" type="line"/>
      <point x="1018" y="777" type="line"/>
      <point x="1018" y="700" type="line"/>
    </contour>
  </outline>
</glyph>
<glyph name="slash" format="1">
  <advance width="793"/>
  <unicode hex="002F"/>
  <outline>
    <contour>
      <point x="-74" y="-160" type="line"/>
      <point x="628" y="1400" type="line"/>
      <point x="793" y="1400" type="line"/>
      <point x="91" y="-160" type="line"/>
    </contour>
  </outline>
</glyph>
<glyph name="less" format="1">
  <advance width="665"/>
  <unicode hex="003C"/>
  <outline>
    <contour>
      <point x="80" y="750" type="line"/>
      <point x="615" y="1105" type="line"/>
      <point x="615" y="918" type="line"/>
      <point x="260" y="680" type="line"/>
      <point x="615" y="452" type="line"/>
      <point x="615" y="255" type="line"/>
      <point x="80" y="610" type="line"/>
    </contour>
  </outline>
</glyph>
<glyph name="E" format="1">
  <advance width="860"/>
  <unicode hex="0045"/>
  <outline>
    <contour>
      <point x="368.0" y="0.0" type="qcurve" smooth="yes"/>
      <point x="328.0" y="0.0"/>
      <point x="328.0" y="0.0"/>
      <point x="328.0" y="38.0" type="qcurve" smooth="yes"/>
      <point x="328.0" y="76.0"/>
      <point x="328.0" y="76.0"/>
      <point x="368.0" y="76.0" type="qcurve"/>
      <point x="404.0" y="76.0"/>
      <point x="463.0" y="76.0"/>
      <point x="490.0" y="76.0" type="qcurve" smooth="yes"/>
      <point x="518.0" y="76.0"/>
      <point x="578.0" y="76.0"/>
      <point x="616.0" y="76.0" type="qcurve" smooth="yes"/>
      <point x="656.0" y="76.0"/>
      <point x="656.0" y="76.0"/>
      <point x="656.0" y="37.0" type="qcurve" smooth="yes"/>
      <point x="656.0" y="0.0"/>
      <point x="656.0" y="0.0"/>
      <point x="616.0" y="0.0" type="qcurve" smooth="yes"/>
      <point x="578.0" y="0.0"/>
      <point x="518.0" y="0.0"/>
      <point x="490.0" y="0.0" type="qcurve" smooth="yes"/>
      <point x="463.0" y="0.0"/>
      <point x="404.0" y="0.0"/>
    </contour>
    <contour>
      <point x="368" y="76" type="qcurve" smooth="yes"/>
      <point x="328" y="76"/>
      <point x="328" y="76"/>
      <point x="328" y="114" type="qcurve" smooth="yes"/>
      <point x="328" y="152"/>
      <point x="328" y="152"/>
      <point x="368" y="152" type="qcurve"/>
      <point x="404" y="152"/>
      <point x="463" y="152"/>
      <point x="490" y="152" type="qcurve" smooth="yes"/>
      <point x="518" y="152"/>
      <point x="578" y="152"/>
      <point x="616" y="152" type="qcurve" smooth="yes"/>
      <point x="656" y="152"/>
      <point x="656" y="152"/>
      <point x="656" y="113" type="qcurve" smooth="yes"/>
      <point x="656" y="76"/>
      <point x="656" y="76"/>
      <point x="616" y="76" type="qcurve" smooth="yes"/>
      <point x="578" y="76"/>
      <point x="518" y="76"/>
      <point x="490" y="76" type="qcurve" smooth="yes"/>
      <point x="463" y="76"/>
      <point x="404" y="76"/>
    </contour>
    <contour>
      <point x="368.0" y="608.0" type="qcurve" smooth="yes"/>
      <point x="328.0" y="608.0"/>
      <point x="328.0" y="608.0"/>
      <point x="328.0" y="646.0" type="qcurve" smooth="yes"/>
      <point x="328.0" y="684.0"/>
      <point x="328.0" y="684.0"/>
      <point x="368.0" y="684.0" type="qcurve"/>
      <point x="385.0" y="684.0"/>
      <point x="430.0" y="684.0"/>
      <point x="453.0" y="684.0" type="qcurve" smooth="yes"/>
      <point x="475.0" y="684.0"/>
      <point x="517.0" y="684.0"/>
      <point x="534.0" y="684.0" type="qcurve" smooth="yes"/>
      <point x="574.0" y="684.0"/>
      <point x="574.0" y="684.0"/>
      <point x="574.0" y="645.0" type="qcurve" smooth="yes"/>
      <point x="574.0" y="608.0"/>
      <point x="574.0" y="608.0"/>
      <point x="534.0" y="608.0" type="qcurve" smooth="yes"/>
      <point x="518.0" y="608.0"/>
      <point x="476.0" y="608.0"/>
      <point x="455.0" y="608.0" type="qcurve" smooth="yes"/>
      <point x="431.0" y="608.0"/>
      <point x="386.0" y="608.0"/>
    </contour>
    <contour>
      <point x="368" y="684" type="qcurve" smooth="yes"/>
      <point x="328" y="684"/>
      <point x="328" y="684"/>
      <point x="328" y="722" type="qcurve" smooth="yes"/>
      <point x="328" y="760"/>
      <point x="328" y="760"/>
      <point x="368" y="760" type="qcurve"/>
      <point x="386" y="760"/>
      <point x="432" y="760"/>
      <point x="455" y="760" type="qcurve" smooth="yes"/>
      <point x="477" y="760"/>
      <point x="518" y="760"/>
      <point x="534" y="760" type="qcurve" smooth="yes"/>
      <point x="574" y="760"/>
      <point x="574" y="760"/>
      <point x="574" y="721" type="qcurve" smooth="yes"/>
      <point x="574" y="684"/>
      <point x="574" y="684"/>
      <point x="534" y="684" type="qcurve" smooth="yes"/>
      <point x="518" y="684"/>
      <point x="476" y="684"/>
      <point x="453" y="684" type="qcurve"/>
      <point x="431" y="684"/>
      <point x="386" y="684"/>
    </contour>
    <contour>
      <point x="368.0" y="1216.0" type="qcurve" smooth="yes"/>
      <point x="328.0" y="1216.0"/>
      <point x="328.0" y="1216.0"/>
      <point x="328.0" y="1254.0" type="qcurve" smooth="yes"/>
      <point x="328.0" y="1292.0"/>
      <point x="328.0" y="1292.0"/>
      <point x="368.0" y="1292.0" type="qcurve"/>
      <point x="404.0" y="1292.0"/>
      <point x="462.0" y="1292.0"/>
      <point x="489.0" y="1292.0" type="qcurve" smooth="yes"/>
      <point x="517.0" y="1292.0"/>
      <point x="578.0" y="1292.0"/>
      <point x="616.0" y="1292.0" type="qcurve" smooth="yes"/>
      <point x="656.0" y="1292.0"/>
      <point x="656.0" y="1292.0"/>
      <point x="656.0" y="1253.0" type="qcurve" smooth="yes"/>
      <point x="656.0" y="1216.0"/>
      <point x="656.0" y="1216.0"/>
      <point x="616.0" y="1216.0" type="qcurve" smooth="yes"/>
      <point x="578.0" y="1216.0"/>
      <point x="517.0" y="1216.0"/>
      <point x="489.0" y="1216.0" type="qcurve" smooth="yes"/>
      <point x="462.0" y="1216.0"/>
      <point x="404.0" y="1216.0"/>
    </contour>
    <contour>
      <point x="368" y="1292" type="qcurve" smooth="yes"/>
      <point x="328" y="1292"/>
      <point x="328" y="1292"/>
      <point x="328" y="1330" type="qcurve" smooth="yes"/>
      <point x="328" y="1368"/>
      <point x="328" y="1368"/>
      <point x="368" y="1368" type="qcurve"/>
      <point x="404" y="1368"/>
      <point x="462" y="1368"/>
      <point x="489" y="1368" type="qcurve" smooth="yes"/>
      <point x="517" y="1368"/>
      <point x="578" y="1368"/>
      <point x="616" y="1368" type="qcurve" smooth="yes"/>
      <point x="656" y="1368"/>
      <point x="656" y="1368"/>
      <point x="656" y="1329" type="qcurve" smooth="yes"/>
      <point x="656" y="1292"/>
      <point x="656" y="1292"/>
      <point x="616" y="1292" type="qcurve" smooth="yes"/>
      <point x="578" y="1292"/>
      <point x="517" y="1292"/>
      <point x="489" y="1292" type="qcurve" smooth="yes"/>
      <point x="462" y="1292"/>
      <point x="404" y="1292"/>
    </contour>
    <component base="CapStemPatternV2" xOffset="-82"/>
    <component base="RightBotTerm" xOffset="410"/>
    <component base="RightBotTerm" xOffset="328" yOffset="608"/>
    <component base="RightTopTerminal" xOffset="410" yOffset="1216"/>
    <component base="RightTopTerminal" xOffset="328" yOffset="608"/>
  </outline>
</glyph>
<glyph name="H" format="1">
  <advance width="1476"/>
  <unicode hex="0048"/>
  <outline>
    <contour>
      <point x="368" y="608" type="qcurve"/>
      <point x="328" y="608"/>
      <point x="328" y="608"/>
      <point x="328" y="646" type="qcurve" smooth="yes"/>
      <point x="328" y="684"/>
      <point x="328" y="684"/>
      <point x="368" y="684" type="qcurve"/>
      <point x="486" y="684"/>
      <point x="620" y="684"/>
      <point x="738" y="684" type="qcurve" smooth="yes"/>
      <point x="856" y="684"/>
      <point x="990" y="684"/>
      <point x="1108" y="684" type="qcurve" smooth="yes"/>
      <point x="1148" y="684"/>
      <point x="1148" y="684"/>
      <point x="1148" y="646" type="qcurve" smooth="yes"/>
      <point x="1148" y="608"/>
      <point x="1148" y="608"/>
      <point x="1108" y="608" type="qcurve"/>
      <point x="990" y="608"/>
      <point x="855" y="608"/>
      <point x="738" y="608" type="qcurve"/>
      <point x="619" y="608"/>
      <point x="486" y="608"/>
    </contour>
    <contour>
      <point x="368" y="684" type="qcurve"/>
      <point x="328" y="684"/>
      <point x="328" y="684"/>
      <point x="328" y="722" type="qcurve" smooth="yes"/>
      <point x="328" y="760"/>
      <point x="328" y="760"/>
      <point x="368" y="760" type="qcurve"/>
      <point x="486" y="760"/>
      <point x="620" y="760"/>
      <point x="738" y="760" type="qcurve" smooth="yes"/>
      <point x="856" y="760"/>
      <point x="990" y="760"/>
      <point x="1108" y="760" type="qcurve" smooth="yes"/>
      <point x="1148" y="760"/>
      <point x="1148" y="760"/>
      <point x="1148" y="722" type="qcurve" smooth="yes"/>
      <point x="1148" y="684"/>
      <point x="1148" y="684"/>
      <point x="1108" y="684" type="qcurve"/>
      <point x="990" y="684"/>
      <point x="855" y="684"/>
      <point x="738" y="684" type="qcurve"/>
      <point x="619" y="684"/>
      <point x="486" y="684"/>
    </contour>
    <component base="CapStemPatternV3" xOffset="-82"/>
    <component base="CapStemPatternV3" xOffset="902"/>
  </outline>
</glyph>
<glyph name="K" format="1">
  <advance width="1163"/>
  <unicode hex="004B"/>
  <outline>
    <contour>
      <point x="533" y="728" type="qcurve" smooth="yes"/>
      <point x="507" y="754"/>
      <point x="507" y="754"/>
      <point x="533" y="780" type="qcurve" smooth="yes"/>
      <point x="559" y="806"/>
      <point x="664" y="911"/>
      <point x="747" y="993" type="qcurve"/>
      <point x="824" y="1071"/>
      <point x="922" y="1169"/>
      <point x="950" y="1197" type="qcurve" smooth="yes"/>
      <point x="976" y="1223"/>
      <point x="976" y="1223"/>
      <point x="1002" y="1197" type="qcurve" smooth="yes"/>
      <point x="1028" y="1171"/>
      <point x="1028" y="1171"/>
      <point x="1002" y="1145" type="qcurve" smooth="yes"/>
      <point x="975" y="1118"/>
      <point x="876" y="1019"/>
      <point x="799" y="941" type="qcurve" smooth="yes"/>
      <point x="716" y="859"/>
      <point x="611" y="754"/>
      <point x="585" y="728" type="qcurve" smooth="yes"/>
      <point x="559" y="702"/>
      <point x="559" y="702"/>
    </contour>
    <contour>
      <point x="531" y="674" type="qcurve" smooth="yes"/>
      <point x="559" y="702"/>
      <point x="559" y="702"/>
      <point x="585" y="675" type="qcurve" smooth="yes"/>
      <point x="612" y="649"/>
      <point x="824" y="436"/>
      <point x="906" y="354" type="qcurve" smooth="yes"/>
      <point x="984" y="276"/>
      <point x="1010" y="248"/>
      <point x="1038" y="222" type="qcurve" smooth="yes"/>
      <point x="1065" y="196"/>
      <point x="1065" y="196"/>
      <point x="1037" y="168" type="qcurve" smooth="yes"/>
      <point x="1010" y="141"/>
      <point x="1010" y="141"/>
      <point x="983" y="167" type="qcurve" smooth="yes"/>
      <point x="955" y="193"/>
      <point x="928" y="221"/>
      <point x="851" y="299" type="qcurve" smooth="yes"/>
      <point x="768" y="382"/>
      <point x="556" y="593"/>
      <point x="530" y="620" type="qcurve" smooth="yes"/>
      <point x="503" y="646"/>
      <point x="503" y="646"/>
    </contour>
    <contour>
      <point x="476" y="619" type="qcurve" smooth="yes"/>
      <point x="503" y="646"/>
      <point x="503" y="646"/>
      <point x="530" y="620" type="qcurve" smooth="yes"/>
      <point x="556" y="593"/>
      <point x="769" y="381"/>
      <point x="851" y="299" type="qcurve" smooth="yes"/>
      <point x="929" y="221"/>
      <point x="955" y="193"/>
      <point x="983" y="167" type="qcurve" smooth="yes"/>
      <point x="1010" y="141"/>
      <point x="1010" y="141"/>
      <point x="982" y="113" type="qcurve" smooth="yes"/>
      <point x="955" y="86"/>
      <point x="955" y="86"/>
      <point x="928" y="112" type="qcurve" smooth="yes"/>
      <point x="900" y="138"/>
      <point x="873" y="166"/>
      <point x="795" y="244" type="qcurve" smooth="yes"/>
      <point x="713" y="327"/>
      <point x="501" y="538"/>
      <point x="474" y="565" type="qcurve" smooth="yes"/>
      <point x="448" y="591"/>
      <point x="448" y="591"/>
    </contour>
    <contour>
      <point x="481" y="780" type="qcurve" smooth="yes"/>
      <point x="455" y="806"/>
      <point x="455" y="806"/>
      <point x="481" y="832" type="qcurve" smooth="yes"/>
      <point x="507" y="859"/>
      <point x="613" y="964"/>
      <point x="694" y="1046" type="qcurve" smooth="yes"/>
      <point x="773" y="1124"/>
      <point x="871" y="1222"/>
      <point x="898" y="1249" type="qcurve" smooth="yes"/>
      <point x="924" y="1276"/>
      <point x="923" y="1276"/>
      <point x="950" y="1249" type="qcurve" smooth="yes"/>
      <point x="976" y="1223"/>
      <point x="976" y="1223"/>
      <point x="950" y="1197" type="qcurve" smooth="yes"/>
      <point x="923" y="1170"/>
      <point x="824" y="1071"/>
      <point x="747" y="993" type="qcurve" smooth="yes"/>
      <point x="664" y="911"/>
      <point x="559" y="806"/>
      <point x="533" y="780" type="qcurve" smooth="yes"/>
      <point x="507" y="754"/>
      <point x="507" y="754"/>
    </contour>
    <contour>
      <point x="205" y="152" type="qcurve" smooth="yes"/>
      <point x="164" y="152"/>
      <point x="164" y="152"/>
      <point x="164" y="190" type="qcurve" smooth="yes"/>
      <point x="164" y="228"/>
      <point x="164" y="265"/>
      <point x="164" y="380" type="qcurve" smooth="yes"/>
      <point x="164" y="491"/>
      <point x="164" y="548"/>
      <point x="164" y="586" type="qcurve" smooth="yes"/>
      <point x="164" y="624"/>
      <point x="164" y="624"/>
      <point x="205" y="624" type="qcurve" smooth="yes"/>
      <point x="246" y="624"/>
      <point x="246" y="624"/>
      <point x="246" y="586" type="qcurve" smooth="yes"/>
      <point x="246" y="548"/>
      <point x="246" y="490"/>
      <point x="246" y="380" type="qcurve" smooth="yes"/>
      <point x="246" y="263"/>
      <point x="246" y="228"/>
      <point x="246" y="190" type="qcurve" smooth="yes"/>
      <point x="246" y="152"/>
      <point x="246" y="152"/>
    </contour>
    <contour>
      <point x="287" y="152" type="qcurve" smooth="yes"/>
      <point x="246" y="152"/>
      <point x="246" y="152"/>
      <point x="246" y="190" type="qcurve" smooth="yes"/>
      <point x="246" y="228"/>
      <point x="246" y="265"/>
      <point x="246" y="380" type="qcurve" smooth="yes"/>
      <point x="246" y="491"/>
      <point x="246" y="548"/>
      <point x="246" y="586" type="qcurve" smooth="yes"/>
      <point x="246" y="624"/>
      <point x="246" y="624"/>
      <point x="287" y="624" type="qcurve"/>
      <point x="328" y="624"/>
      <point x="328" y="624"/>
      <point x="328" y="586" type="qcurve" smooth="yes"/>
      <point x="328" y="548"/>
      <point x="328" y="490"/>
      <point x="328" y="380" type="qcurve" smooth="yes"/>
      <point x="328" y="263"/>
      <point x="328" y="228"/>
      <point x="328" y="190" type="qcurve" smooth="yes"/>
      <point x="328" y="152"/>
      <point x="328" y="152"/>
    </contour>
    <contour>
      <point x="205" y="776" type="qcurve" smooth="yes"/>
      <point x="164" y="776"/>
      <point x="164" y="776"/>
      <point x="164" y="814" type="qcurve" smooth="yes"/>
      <point x="164" y="852"/>
      <point x="164" y="877"/>
      <point x="164" y="992" type="qcurve" smooth="yes"/>
      <point x="164" y="1103"/>
      <point x="164" y="1140"/>
      <point x="164" y="1178" type="qcurve" smooth="yes"/>
      <point x="164" y="1216"/>
      <point x="164" y="1216"/>
      <point x="205" y="1216" type="qcurve" smooth="yes"/>
      <point x="246" y="1216"/>
      <point x="246" y="1216"/>
      <point x="246" y="1178" type="qcurve" smooth="yes"/>
      <point x="246" y="1140"/>
      <point x="246" y="1102"/>
      <point x="246" y="992" type="qcurve" smooth="yes"/>
      <point x="246" y="875"/>
      <point x="246" y="852"/>
      <point x="246" y="814" type="qcurve" smooth="yes"/>
      <point x="246" y="776"/>
      <point x="246" y="776"/>
    </contour>
    <contour>
      <point x="287" y="776" type="qcurve" smooth="yes"/>
      <point x="246" y="776"/>
      <point x="246" y="776"/>
      <point x="246" y="814" type="qcurve" smooth="yes"/>
      <point x="246" y="852"/>
      <point x="246" y="877"/>
      <point x="246" y="992" type="qcurve" smooth="yes"/>
      <point x="246" y="1103"/>
      <point x="246" y="1140"/>
      <point x="246" y="1178" type="qcurve" smooth="yes"/>
      <point x="246" y="1216"/>
      <point x="246" y="1216"/>
      <point x="287" y="1216" type="qcurve" smooth="yes"/>
      <point x="328" y="1216"/>
      <point x="328" y="1216"/>
      <point x="328" y="1178" type="qcurve" smooth="yes"/>
      <point x="328" y="1140"/>
      <point x="328" y="1102"/>
      <point x="328" y="992" type="qcurve" smooth="yes"/>
      <point x="328" y="875"/>
      <point x="328" y="852"/>
      <point x="328" y="814" type="qcurve" smooth="yes"/>
      <point x="328" y="776"/>
      <point x="328" y="776"/>
    </contour>
    <contour>
      <point x="460" y="683" type="qcurve"/>
      <point x="397" y="700"/>
      <point x="397" y="700"/>
      <point x="460" y="721" type="qcurve"/>
      <point x="507" y="754"/>
      <point x="507" y="754"/>
      <point x="533" y="728" type="qcurve"/>
      <point x="559" y="702"/>
      <point x="559" y="702"/>
      <point x="531" y="674" type="qcurve"/>
      <point x="503" y="646"/>
      <point x="503" y="646"/>
    </contour>
    <contour>
      <point x="397" y="660" type="qcurve"/>
      <point x="397" y="700"/>
      <point x="397" y="700"/>
      <point x="460" y="683" type="qcurve"/>
      <point x="503" y="646"/>
      <point x="503" y="646"/>
      <point x="476" y="619" type="qcurve"/>
      <point x="448" y="591"/>
      <point x="448" y="591"/>
      <point x="426" y="610" type="qcurve"/>
      <point x="397" y="618"/>
      <point x="397" y="618"/>
    </contour>
    <contour>
      <point x="397" y="738" type="qcurve"/>
      <point x="397" y="782"/>
      <point x="397" y="782"/>
      <point x="426" y="790" type="qcurve"/>
      <point x="455" y="806"/>
      <point x="455" y="806"/>
      <point x="481" y="780" type="qcurve"/>
      <point x="507" y="754"/>
      <point x="507" y="754"/>
      <point x="460" y="721" type="qcurve"/>
      <point x="397" y="700"/>
      <point x="397" y="700"/>
    </contour>
    <contour>
      <point x="365" y="622" type="qcurve"/>
      <point x="328" y="624"/>
      <point x="328" y="624"/>
      <point x="328" y="662" type="qcurve"/>
      <point x="328" y="700"/>
      <point x="328" y="700"/>
      <point x="364" y="700" type="qcurve" smooth="yes"/>
      <point x="397" y="700"/>
      <point x="397" y="700"/>
      <point x="397" y="660" type="qcurve"/>
      <point x="397" y="618"/>
      <point x="397" y="618"/>
    </contour>
    <contour>
      <point x="364" y="700" type="qcurve" smooth="yes"/>
      <point x="328" y="700"/>
      <point x="328" y="700"/>
      <point x="328" y="738" type="qcurve"/>
      <point x="328" y="776"/>
      <point x="328" y="776"/>
      <point x="364" y="778" type="qcurve"/>
      <point x="397" y="782"/>
      <point x="397" y="782"/>
      <point x="397" y="738" type="qcurve"/>
      <point x="397" y="700"/>
      <point x="397" y="700"/>
    </contour>
    <component base="CWTerm" xScale="0.7071067811865476" xyScale="-0.7071067811865475" yxScale="0.7071067811865475" yScale="0.7071067811865476" xOffset="-64" yOffset="537"/>
    <component base="CCWTerm" xScale="-0.7071067811865474" xyScale="-0.7071067811865477" yxScale="0.7071067811865477" yScale="-0.7071067811865474" xOffset="326" yOffset="1184"/>
    <component base="TopTerminalV3" xOffset="-82"/>
    <component base="WaistElement" xOffset="-82" yOffset="16"/>
    <component base="BaseTerminal" xOffset="-82"/>
  </outline>
</glyph>
<glyph name="U" format="1">
  <advance width="1321"/>
  <unicode hex="0055"/>
  <outline>
    <contour>
      <point x="526" y="57" type="qcurve"/>
      <point x="376" y="101"/>
      <point x="232" y="304"/>
      <point x="232" y="505" type="qcurve"/>
      <point x="232" y="608"/>
      <point x="232" y="608"/>
      <point x="191" y="608" type="qcurve"/>
      <point x="150" y="608"/>
      <point x="150" y="608"/>
      <point x="150" y="518" type="qcurve"/>
      <point x="150" y="248"/>
      <point x="342" y="21"/>
      <point x="524" y="-18" type="qcurve"/>
      <point x="579" y="-26"/>
      <point x="579" y="-26"/>
      <point x="579" y="12" type="qcurve" smooth="yes"/>
      <point x="579" y="49"/>
      <point x="579" y="49"/>
    </contour>
    <contour>
      <point x="532" y="133" type="qcurve"/>
      <point x="415" y="174"/>
      <point x="314" y="341"/>
      <point x="314" y="492" type="qcurve"/>
      <point x="314" y="608"/>
      <point x="314" y="608"/>
      <point x="273" y="608" type="qcurve"/>
      <point x="232" y="608"/>
      <point x="232" y="608"/>
      <point x="232" y="505" type="qcurve"/>
      <point x="232" y="304"/>
      <point x="376" y="101"/>
      <point x="526" y="57" type="qcurve"/>
      <point x="579" y="49"/>
      <point x="579" y="49"/>
      <point x="579" y="87" type="qcurve" smooth="yes"/>
      <point x="579" y="123"/>
      <point x="579" y="123"/>
    </contour>
    <contour>
      <point x="796" y="58" type="qcurve"/>
      <point x="743" y="48"/>
      <point x="743" y="48"/>
      <point x="743" y="12" type="qcurve" smooth="yes"/>
      <point x="743" y="-26"/>
      <point x="743" y="-26"/>
      <point x="798" y="-18" type="qcurve"/>
      <point x="980" y="21"/>
      <point x="1171" y="248"/>
      <point x="1171" y="518" type="qcurve"/>
      <point x="1171" y="608"/>
      <point x="1171" y="608"/>
      <point x="1130" y="608" type="qcurve"/>
      <point x="1089" y="608"/>
      <point x="1089" y="608"/>
      <point x="1089" y="505" type="qcurve"/>
      <point x="1089" y="309"/>
      <point x="946" y="101"/>
    </contour>
    <contour>
      <point x="790" y="133" type="qcurve"/>
      <point x="743" y="123"/>
      <point x="743" y="123"/>
      <point x="743" y="83" type="qcurve"/>
      <point x="743" y="48"/>
      <point x="743" y="48"/>
      <point x="796" y="58" type="qcurve"/>
      <point x="946" y="101"/>
      <point x="1089" y="309"/>
      <point x="1089" y="505" type="qcurve"/>
      <point x="1089" y="608"/>
      <point x="1089" y="608"/>
      <point x="1048" y="608" type="qcurve"/>
      <point x="1007" y="608"/>
      <point x="1007" y="608"/>
      <point x="1007" y="492" type="qcurve"/>
      <point x="1007" y="341"/>
      <point x="907" y="174"/>
    </contour>
    <component base="TopTerminalV3" xOffset="-96"/>
    <component base="TopTerminalV3" xOffset="761"/>
    <component base="WaistElement" xOffset="-96"/>
    <component base="WaistElement" xOffset="761"/>
    <component base="MidStemTop" xOffset="-96"/>
    <component base="MidStemTop" xOffset="761"/>
    <component base="RoundWaistElement180" xOffset="579" yOffset="-1"/>
  </outline>
</glyph>
<glyph name="V" format="1">
  <advance width="1280"/>
  <unicode hex="0056"/>
  <outline>
    <contour>
      <point x="407" y="681" type="qcurve"/>
      <point x="442" y="697"/>
      <point x="442" y="697"/>
      <point x="457" y="661" type="qcurve"/>
      <point x="514" y="527"/>
      <point x="607" y="327"/>
      <point x="625" y="287" type="qcurve"/>
      <point x="643" y="245"/>
      <point x="643" y="245"/>
      <point x="624" y="199" type="qcurve"/>
      <point x="605" y="152"/>
      <point x="605" y="152"/>
      <point x="562" y="251" type="qcurve"/>
      <point x="539" y="302"/>
      <point x="442" y="506"/>
      <point x="386" y="630" type="qcurve"/>
      <point x="371" y="665"/>
      <point x="371" y="665"/>
    </contour>
    <contour>
      <point x="943" y="644" type="qcurve"/>
      <point x="977" y="629"/>
      <point x="977" y="629"/>
      <point x="962" y="595" type="qcurve"/>
      <point x="890" y="434"/>
      <point x="800" y="226"/>
      <point x="780" y="185" type="qcurve" smooth="yes"/>
      <point x="764" y="152"/>
      <point x="764" y="152"/>
      <point x="723" y="152" type="qcurve"/>
      <point x="681" y="152"/>
      <point x="681" y="152"/>
      <point x="718" y="233" type="qcurve" smooth="yes"/>
      <point x="741" y="284"/>
      <point x="833" y="489"/>
      <point x="894" y="624" type="qcurve"/>
      <point x="909" y="659"/>
      <point x="909" y="659"/>
    </contour>
    <contour>
      <point x="876" y="673" type="qcurve"/>
      <point x="909" y="659"/>
      <point x="909" y="659"/>
      <point x="894" y="624" type="qcurve"/>
      <point x="833" y="489"/>
      <point x="741" y="284"/>
      <point x="718" y="233" type="qcurve" smooth="yes"/>
      <point x="681" y="152"/>
      <point x="681" y="152"/>
      <point x="662" y="199" type="qcurve"/>
      <point x="643" y="245"/>
      <point x="643" y="245"/>
      <point x="662" y="291" type="qcurve" smooth="yes"/>
      <point x="679" y="331"/>
      <point x="765" y="518"/>
      <point x="826" y="654" type="qcurve"/>
      <point x="841" y="688"/>
      <point x="841" y="688"/>
    </contour>
    <contour>
      <point x="336" y="650" type="qcurve"/>
      <point x="371" y="665"/>
      <point x="371" y="665"/>
      <point x="386" y="630" type="qcurve"/>
      <point x="442" y="506"/>
      <point x="539" y="302"/>
      <point x="562" y="251" type="qcurve"/>
      <point x="605" y="152"/>
      <point x="605" y="152"/>
      <point x="563" y="152" type="qcurve"/>
      <point x="522" y="152"/>
      <point x="522" y="152"/>
      <point x="506" y="185" type="qcurve" smooth="yes"/>
      <point x="486" y="226"/>
      <point x="388" y="440"/>
      <point x="315" y="599" type="qcurve"/>
      <point x="299" y="634"/>
      <point x="299" y="634"/>
    </contour>
    <component base="BaseCrown" xOffset="470"/>
    <component base="CWTermMidWaist" xScale="0.9167228629799683" xyScale="-0.3995237070435358" yxScale="0.3995237070435358" yScale="0.9167228629799683" xOffset="436" yOffset="199"/>
    <component base="CCWTermMidWaist" xScale="0.9184885575988073" xyScale="0.39544755601730947" yxScale="-0.39544755601730947" yScale="0.9184885575988073" xOffset="379" yOffset="4"/>
  </outline>
</glyph>
<glyph name="W" format="1">
  <advance width="1636"/>
  <unicode hex="0057"/>
  <outline>
    <contour>
      <point x="449" y="152" type="qcurve"/>
      <point x="408" y="152"/>
      <point x="408" y="152"/>
      <point x="396" y="186" type="qcurve"/>
      <point x="381" y="228"/>
      <point x="314" y="422"/>
      <point x="255" y="587" type="qcurve"/>
      <point x="242" y="623"/>
      <point x="242" y="623"/>
      <point x="281" y="636" type="qcurve"/>
      <point x="316" y="648"/>
      <point x="316" y="648"/>
      <point x="328" y="612" type="qcurve"/>
      <point x="373" y="483"/>
      <point x="435" y="299"/>
      <point x="453" y="247" type="qcurve"/>
      <point x="488" y="152"/>
      <point x="488" y="152"/>
    </contour>
    <contour>
      <point x="501" y="228" type="qcurve"/>
      <point x="488" y="152"/>
      <point x="488" y="152"/>
      <point x="453" y="247" type="qcurve"/>
      <point x="435" y="299"/>
      <point x="373" y="483"/>
      <point x="328" y="612" type="qcurve"/>
      <point x="316" y="648"/>
      <point x="316" y="648"/>
      <point x="351" y="660" type="qcurve"/>
      <point x="390" y="672"/>
      <point x="390" y="672"/>
      <point x="401" y="638" type="qcurve"/>
      <point x="451" y="493"/>
      <point x="499" y="344"/>
      <point x="501" y="336" type="qcurve"/>
      <point x="512" y="302"/>
      <point x="512" y="302"/>
    </contour>
    <contour>
      <point x="575" y="152" type="qcurve"/>
      <point x="536" y="152"/>
      <point x="536" y="152"/>
      <point x="571" y="247" type="qcurve"/>
      <point x="589" y="299"/>
      <point x="631" y="412"/>
      <point x="650" y="473" type="qcurve"/>
      <point x="662" y="510"/>
      <point x="662" y="510"/>
      <point x="697" y="498" type="qcurve"/>
      <point x="733" y="487"/>
      <point x="733" y="487"/>
      <point x="720" y="449" type="qcurve"/>
      <point x="698" y="382"/>
      <point x="643" y="228"/>
      <point x="628" y="186" type="qcurve"/>
      <point x="616" y="152"/>
      <point x="616" y="152"/>
    </contour>
    <contour>
      <point x="523" y="228" type="qcurve"/>
      <point x="512" y="302"/>
      <point x="512" y="302"/>
      <point x="525" y="335" type="qcurve"/>
      <point x="530" y="349"/>
      <point x="556" y="421"/>
      <point x="580" y="497" type="qcurve"/>
      <point x="592" y="533"/>
      <point x="592" y="533"/>
      <point x="628" y="521" type="qcurve"/>
      <point x="662" y="510"/>
      <point x="662" y="510"/>
      <point x="650" y="473" type="qcurve"/>
      <point x="631" y="412"/>
      <point x="589" y="299"/>
      <point x="571" y="247" type="qcurve"/>
      <point x="536" y="152"/>
      <point x="536" y="152"/>
    </contour>
    <contour>
      <point x="673" y="661" type="qcurve"/>
      <point x="639" y="673"/>
      <point x="639" y="673"/>
      <point x="651" y="709" type="qcurve"/>
      <point x="675" y="775"/>
      <point x="690" y="829"/>
      <point x="705" y="871" type="qcurve"/>
      <point x="717" y="905"/>
      <point x="717" y="905"/>
      <point x="758" y="905" type="qcurve"/>
      <point x="797" y="905"/>
      <point x="797" y="905"/>
      <point x="763" y="810" type="qcurve"/>
      <point x="747" y="761"/>
      <point x="742" y="748"/>
      <point x="722" y="687" type="qcurve"/>
      <point x="709" y="649"/>
      <point x="709" y="649"/>
    </contour>
    <contour>
      <point x="745" y="637" type="qcurve"/>
      <point x="709" y="649"/>
      <point x="709" y="649"/>
      <point x="722" y="687" type="qcurve"/>
      <point x="742" y="748"/>
      <point x="747" y="761"/>
      <point x="763" y="810" type="qcurve"/>
      <point x="797" y="905"/>
      <point x="797" y="905"/>
      <point x="810" y="829" type="qcurve"/>
      <point x="821" y="755"/>
      <point x="821" y="755"/>
      <point x="811" y="721" type="qcurve"/>
      <point x="809" y="713"/>
      <point x="801" y="690"/>
      <point x="792" y="663" type="qcurve"/>
      <point x="779" y="625"/>
      <point x="779" y="625"/>
    </contour>
    <contour>
      <point x="972" y="663" type="qcurve"/>
      <point x="933" y="650"/>
      <point x="933" y="650"/>
      <point x="921" y="687" type="qcurve"/>
      <point x="901" y="747"/>
      <point x="895" y="761"/>
      <point x="879" y="810" type="qcurve"/>
      <point x="845" y="905"/>
      <point x="845" y="905"/>
      <point x="884" y="905" type="qcurve"/>
      <point x="925" y="905"/>
      <point x="925" y="905"/>
      <point x="937" y="871" type="qcurve"/>
      <point x="952" y="829"/>
      <point x="972" y="776"/>
      <point x="996" y="710" type="qcurve"/>
      <point x="1008" y="674"/>
      <point x="1008" y="674"/>
    </contour>
    <contour>
      <point x="898" y="638" type="qcurve"/>
      <point x="860" y="625"/>
      <point x="860" y="625"/>
      <point x="848" y="662" type="qcurve"/>
      <point x="840" y="689"/>
      <point x="833" y="713"/>
      <point x="831" y="721" type="qcurve"/>
      <point x="821" y="755"/>
      <point x="821" y="755"/>
      <point x="832" y="829" type="qcurve"/>
      <point x="845" y="905"/>
      <point x="845" y="905"/>
      <point x="879" y="810" type="qcurve"/>
      <point x="895" y="761"/>
      <point x="901" y="747"/>
      <point x="921" y="687" type="qcurve"/>
      <point x="933" y="650"/>
      <point x="933" y="650"/>
    </contour>
    <contour>
      <point x="1067" y="152" type="qcurve"/>
      <point x="1026" y="152"/>
      <point x="1026" y="152"/>
      <point x="1014" y="186" type="qcurve"/>
      <point x="999" y="228"/>
      <point x="943" y="383"/>
      <point x="920" y="450" type="qcurve"/>
      <point x="907" y="485"/>
      <point x="907" y="485"/>
      <point x="944" y="498" type="qcurve"/>
      <point x="981" y="511"/>
      <point x="981" y="511"/>
      <point x="993" y="475" type="qcurve"/>
      <point x="1012" y="414"/>
      <point x="1053" y="299"/>
      <point x="1071" y="247" type="qcurve"/>
      <point x="1106" y="152"/>
      <point x="1106" y="152"/>
    </contour>
    <contour>
      <point x="1119" y="228" type="qcurve"/>
      <point x="1106" y="152"/>
      <point x="1106" y="152"/>
      <point x="1071" y="247" type="qcurve"/>
      <point x="1053" y="299"/>
      <point x="1012" y="414"/>
      <point x="993" y="475" type="qcurve"/>
      <point x="981" y="511"/>
      <point x="981" y="511"/>
      <point x="1019" y="524" type="qcurve"/>
      <point x="1055" y="535"/>
      <point x="1055" y="535"/>
      <point x="1067" y="499" type="qcurve"/>
      <point x="1091" y="423"/>
      <point x="1117" y="344"/>
      <point x="1119" y="336" type="qcurve"/>
      <point x="1130" y="302"/>
      <point x="1130" y="302"/>
    </contour>
    <contour>
      <point x="1193" y="152" type="qcurve"/>
      <point x="1154" y="152"/>
      <point x="1154" y="152"/>
      <point x="1189" y="247" type="qcurve"/>
      <point x="1207" y="299"/>
      <point x="1266" y="478"/>
      <point x="1311" y="607" type="qcurve"/>
      <point x="1323" y="642"/>
      <point x="1323" y="642"/>
      <point x="1358" y="631" type="qcurve"/>
      <point x="1393" y="619"/>
      <point x="1393" y="619"/>
      <point x="1380" y="583" type="qcurve"/>
      <point x="1323" y="417"/>
      <point x="1261" y="228"/>
      <point x="1246" y="186" type="qcurve"/>
      <point x="1234" y="152"/>
      <point x="1234" y="152"/>
    </contour>
    <contour>
      <point x="1141" y="228" type="qcurve"/>
      <point x="1130" y="302"/>
      <point x="1130" y="302"/>
      <point x="1141" y="336" type="qcurve"/>
      <point x="1143" y="344"/>
      <point x="1191" y="487"/>
      <point x="1241" y="631" type="qcurve"/>
      <point x="1253" y="667"/>
      <point x="1253" y="667"/>
      <point x="1288" y="654" type="qcurve"/>
      <point x="1323" y="642"/>
      <point x="1323" y="642"/>
      <point x="1311" y="607" type="qcurve"/>
      <point x="1266" y="478"/>
      <point x="1207" y="299"/>
      <point x="1189" y="247" type="qcurve"/>
      <point x="1154" y="152"/>
      <point x="1154" y="152"/>
    </contour>
    <component base="BaseCrown2" xOffset="878"/>
    <component base="BaseCrown2" xOffset="260"/>
    <component base="TopCrownW" xOffset="569" yOffset="755"/>
    <component base="CCWTermMidWaist" xScale="0.9472102777460288" xyScale="0.32061299058567627" yxScale="-0.32061299058567627" yScale="0.9472102777460288" xOffset="271" yOffset="-12"/>
    <component base="CWTermMidWaist" xScale="0.9472102777460287" xyScale="-0.3206129905856762" yxScale="0.3206129905856762" yScale="0.9472102777460287" xOffset="891" yOffset="144"/>
    <component base="CWWaist" xScale="0.9472102777460288" xyScale="-0.32061299058567627" yxScale="0.32061299058567627" yScale="0.9472102777460288" xOffset="230" yOffset="11"/>
    <component base="CCWWaist" xScale="0.9472102777460288" xyScale="0.32061299058567627" yxScale="-0.32061299058567627" yScale="0.9472102777460288" xOffset="936" yOffset="-149"/>
  </outline>
</glyph>
<glyph name="underscore" format="1">
  <advance width="1122"/>
  <unicode hex="005F"/>
  <outline>
    <contour>
      <point x="6" y="-500" type="line"/>
      <point x="6" y="-329" type="line"/>
      <point x="1123" y="-329" type="line"/>
      <point x="1123" y="-500" type="line"/>
    </contour>
  </outline>
</glyph>
<glyph name="divide" format="1">
  <advance width="1040"/>
  <unicode hex="00F7"/>
  <outline>
    <contour>
      <point x="520" y="170" type="line"/>
      <point x="354" y="336" type="line"/>
      <point x="520" y="504" type="line"/>
      <point x="686" y="336" type="line"/>
    </contour>
    <contour>
      <point x="61" y="603" type="line"/>
      <point x="61" y="758" type="line"/>
      <point x="980" y="758" type="line"/>
      <point x="980" y="603" type="line"/>
    </contour>
    <contour>
      <point x="520" y="857" type="line"/>
      <point x="354" y="1023" type="line"/>
      <point x="520" y="1191" type="line"/>
      <point x="686" y="1023" type="line"/>
    </contour>
  </outline>
</glyph>
<glyph name="BaseCrown2" format="1">
  <advance width="500"/>
  <outline>
    <contour>
      <point x="231" y="0" type="qcurve"/>
      <point x="204" y="0"/>
      <point x="204" y="0"/>
      <point x="190" y="39" type="qcurve"/>
      <point x="175" y="80"/>
      <point x="175" y="80"/>
      <point x="223" y="80" type="qcurve"/>
      <point x="252" y="80"/>
      <point x="252" y="80"/>
      <point x="252" y="39" type="qcurve"/>
      <point x="252" y="0"/>
      <point x="252" y="0"/>
    </contour>
    <contour>
      <point x="223" y="80" type="qcurve"/>
      <point x="175" y="80"/>
      <point x="175" y="80"/>
      <point x="161" y="115" type="qcurve"/>
      <point x="148" y="152"/>
      <point x="148" y="152"/>
      <point x="189" y="152" type="qcurve"/>
      <point x="228" y="152"/>
      <point x="228" y="152"/>
      <point x="240" y="118" type="qcurve"/>
      <point x="252" y="80"/>
      <point x="252" y="80"/>
    </contour>
    <contour>
      <point x="240" y="118" type="qcurve"/>
      <point x="228" y="152"/>
      <point x="228" y="152"/>
      <point x="241" y="228" type="qcurve"/>
      <point x="252" y="302"/>
      <point x="252" y="302"/>
      <point x="263" y="228" type="qcurve"/>
      <point x="276" y="152"/>
      <point x="276" y="152"/>
      <point x="264" y="118" type="qcurve"/>
      <point x="252" y="80"/>
      <point x="252" y="80"/>
    </contour>
    <contour>
      <point x="273" y="0" type="qcurve"/>
      <point x="252" y="0"/>
      <point x="252" y="0"/>
      <point x="252" y="39" type="qcurve"/>
      <point x="252" y="80"/>
      <point x="252" y="80"/>
      <point x="281" y="80" type="qcurve"/>
      <point x="329" y="80"/>
      <point x="329" y="80"/>
      <point x="314" y="39" type="qcurve"/>
      <point x="300" y="0"/>
      <point x="300" y="0"/>
    </contour>
    <contour>
      <point x="281" y="80" type="qcurve"/>
      <point x="252" y="80"/>
      <point x="252" y="80"/>
      <point x="264" y="118" type="qcurve"/>
      <point x="276" y="152"/>
      <point x="276" y="152"/>
      <point x="315" y="152" type="qcurve"/>
      <point x="356" y="152"/>
      <point x="356" y="152"/>
      <point x="343" y="115" type="qcurve"/>
      <point x="329" y="80"/>
      <point x="329" y="80"/>
    </contour>
  </outline>
</glyph>
<glyph name="BaseLeftCurvedElement" format="1">
  <advance width="656"/>
  <outline>
    <contour>
      <point x="140" y="132" type="qcurve"/>
      <point x="98" y="145"/>
      <point x="98" y="145"/>
      <point x="98" y="111" type="qcurve"/>
      <point x="98" y="66"/>
      <point x="98" y="66"/>
      <point x="138" y="57" type="qcurve"/>
      <point x="180" y="50"/>
      <point x="180" y="50"/>
      <point x="180" y="87" type="qcurve"/>
      <point x="180" y="125"/>
      <point x="180" y="125"/>
    </contour>
    <contour>
      <point x="138" y="57" type="qcurve"/>
      <point x="98" y="66"/>
      <point x="98" y="66"/>
      <point x="98" y="31" type="qcurve"/>
      <point x="98" y="-9"/>
      <point x="98" y="-9"/>
      <point x="139" y="-17" type="qcurve"/>
      <point x="180" y="-22"/>
      <point x="180" y="-22"/>
      <point x="180" y="14" type="qcurve"/>
      <point x="180" y="50"/>
      <point x="180" y="50"/>
    </contour>
    <contour>
      <point x="59" y="161" type="qcurve"/>
      <point x="16" y="184"/>
      <point x="16" y="184"/>
      <point x="16" y="149" type="qcurve"/>
      <point x="16" y="100"/>
      <point x="16" y="100"/>
      <point x="57" y="80" type="qcurve"/>
      <point x="98" y="66"/>
      <point x="98" y="66"/>
      <point x="98" y="111" type="qcurve"/>
      <point x="98" y="145"/>
      <point x="98" y="145"/>
    </contour>
    <contour>
      <point x="57" y="80" type="qcurve"/>
      <point x="16" y="100"/>
      <point x="16" y="100"/>
      <point x="16" y="61" type="qcurve"/>
      <point x="16" y="18"/>
      <point x="16" y="18"/>
      <point x="57" y="2" type="qcurve"/>
      <point x="98" y="-9"/>
      <point x="98" y="-9"/>
      <point x="98" y="31" type="qcurve"/>
      <point x="98" y="66"/>
      <point x="98" y="66"/>
    </contour>
  </outline>
</glyph>
<glyph name="CWTerm" format="1">
  <advance width="500"/>
  <outline>
    <contour>
      <point x="213" y="1220" type="qcurve" smooth="yes"/>
      <point x="176" y="1220"/>
      <point x="176" y="1220"/>
      <point x="176" y="1257" type="qcurve"/>
      <point x="176" y="1294"/>
      <point x="176" y="1294"/>
      <point x="213" y="1294" type="qcurve" smooth="yes"/>
      <point x="250" y="1294"/>
      <point x="250" y="1294"/>
      <point x="250" y="1257" type="qcurve"/>
      <point x="250" y="1220"/>
      <point x="250" y="1220"/>
    </contour>
    <contour>
      <point x="287" y="1220" type="qcurve" smooth="yes"/>
      <point x="250" y="1220"/>
      <point x="250" y="1220"/>
      <point x="250" y="1257" type="qcurve"/>
      <point x="250" y="1294"/>
      <point x="250" y="1294"/>
      <point x="287" y="1294" type="qcurve" smooth="yes"/>
      <point x="324" y="1294"/>
      <point x="324" y="1294"/>
      <point x="324" y="1257" type="qcurve"/>
      <point x="324" y="1220"/>
      <point x="324" y="1220"/>
    </contour>
    <contour>
      <point x="213" y="1294" type="qcurve" smooth="yes"/>
      <point x="176" y="1294"/>
      <point x="176" y="1294"/>
      <point x="176" y="1331" type="qcurve"/>
      <point x="176" y="1368"/>
      <point x="176" y="1368"/>
      <point x="213" y="1368" type="qcurve" smooth="yes"/>
      <point x="250" y="1368"/>
      <point x="250" y="1368"/>
      <point x="250" y="1331" type="qcurve"/>
      <point x="250" y="1294"/>
      <point x="250" y="1294"/>
    </contour>
    <contour>
      <point x="287" y="1294" type="qcurve" smooth="yes"/>
      <point x="250" y="1294"/>
      <point x="250" y="1294"/>
      <point x="250" y="1331" type="qcurve"/>
      <point x="250" y="1368"/>
      <point x="250" y="1368"/>
      <point x="287" y="1368" type="qcurve" smooth="yes"/>
      <point x="324" y="1368"/>
      <point x="324" y="1368"/>
      <point x="324" y="1331" type="qcurve"/>
      <point x="324" y="1294"/>
      <point x="324" y="1294"/>
    </contour>
  </outline>
</glyph>
<glyph name="CWWaist" format="1">
  <advance width="500"/>
  <outline>
    <contour>
      <point x="213" y="610" type="qcurve" smooth="yes"/>
      <point x="176" y="610"/>
      <point x="176" y="610"/>
      <point x="176" y="647" type="qcurve"/>
      <point x="176" y="684"/>
      <point x="176" y="684"/>
      <point x="213" y="684" type="qcurve" smooth="yes"/>
      <point x="250" y="684"/>
      <point x="250" y="684"/>
      <point x="250" y="647" type="qcurve"/>
      <point x="250" y="610"/>
      <point x="250" y="610"/>
    </contour>
    <contour>
      <point x="287" y="610" type="qcurve" smooth="yes"/>
      <point x="250" y="610"/>
      <point x="250" y="610"/>
      <point x="250" y="647" type="qcurve"/>
      <point x="250" y="684"/>
      <point x="250" y="684"/>
      <point x="287" y="684" type="qcurve" smooth="yes"/>
      <point x="324" y="684"/>
      <point x="324" y="684"/>
      <point x="324" y="647" type="qcurve"/>
      <point x="324" y="610"/>
      <point x="324" y="610"/>
    </contour>
    <contour>
      <point x="213" y="684" type="qcurve" smooth="yes"/>
      <point x="176" y="684"/>
      <point x="176" y="684"/>
      <point x="176" y="721" type="qcurve"/>
      <point x="176" y="758"/>
      <point x="176" y="758"/>
      <point x="213" y="758" type="qcurve" smooth="yes"/>
      <point x="250" y="758"/>
      <point x="250" y="758"/>
      <point x="250" y="721" type="qcurve"/>
      <point x="250" y="684"/>
      <point x="250" y="684"/>
    </contour>
    <contour>
      <point x="287" y="684" type="qcurve" smooth="yes"/>
      <point x="250" y="684"/>
      <point x="250" y="684"/>
      <point x="250" y="721" type="qcurve"/>
      <point x="250" y="758"/>
      <point x="250" y="758"/>
      <point x="287" y="758" type="qcurve" smooth="yes"/>
      <point x="324" y="758"/>
      <point x="324" y="758"/>
      <point x="324" y="721" type="qcurve"/>
      <point x="324" y="684"/>
      <point x="324" y="684"/>
    </contour>
  </outline>
</glyph>
<glyph name="ForVertical" format="1">
  <advance width="1218"/>
  <outline>
    <contour>
      <point x="180" y="610" type="qcurve" smooth="yes"/>
      <point x="164" y="610"/>
      <point x="164" y="610"/>
      <point x="164" y="647" type="qcurve" smooth="yes"/>
      <point x="164" y="684"/>
      <point x="164" y="684"/>
      <point x="180" y="684" type="qcurve"/>
      <point x="219" y="684"/>
      <point x="289" y="684"/>
      <point x="335" y="684" type="qcurve" smooth="yes"/>
      <point x="379" y="684"/>
      <point x="474" y="684"/>
      <point x="510" y="684" type="qcurve" smooth="yes"/>
      <point x="527" y="684"/>
      <point x="527" y="684"/>
      <point x="527" y="647" type="qcurve" smooth="yes"/>
      <point x="527" y="610"/>
      <point x="527" y="610"/>
      <point x="510" y="610" type="qcurve" smooth="yes"/>
      <point x="474" y="610"/>
      <point x="380" y="610"/>
      <point x="335" y="610" type="qcurve" smooth="yes"/>
      <point x="289" y="610"/>
      <point x="219" y="610"/>
    </contour>
    <contour>
      <point x="180" y="684" type="qcurve" smooth="yes"/>
      <point x="164" y="684"/>
      <point x="164" y="684"/>
      <point x="164" y="721" type="qcurve" smooth="yes"/>
      <point x="164" y="758"/>
      <point x="164" y="758"/>
      <point x="180" y="758" type="qcurve"/>
      <point x="219" y="758"/>
      <point x="289" y="758"/>
      <point x="335" y="758" type="qcurve" smooth="yes"/>
      <point x="379" y="758"/>
      <point x="472" y="758"/>
      <point x="510" y="758" type="qcurve" smooth="yes"/>
      <point x="527" y="758"/>
      <point x="527" y="758"/>
      <point x="527" y="721" type="qcurve" smooth="yes"/>
      <point x="527" y="684"/>
      <point x="527" y="684"/>
      <point x="510" y="684" type="qcurve" smooth="yes"/>
      <point x="474" y="684"/>
      <point x="379" y="684"/>
      <point x="335" y="684" type="qcurve" smooth="yes"/>
      <point x="289" y="684"/>
      <point x="219" y="684"/>
    </contour>
    <contour>
      <point x="568" y="758" type="qcurve" smooth="yes"/>
      <point x="527" y="758"/>
      <point x="527" y="758"/>
      <point x="527" y="795" type="qcurve" smooth="yes"/>
      <point x="527" y="832"/>
      <point x="527" y="877"/>
      <point x="527" y="992" type="qcurve" smooth="yes"/>
      <point x="527" y="1103"/>
      <point x="527" y="1142"/>
      <point x="527" y="1180" type="qcurve" smooth="yes"/>
      <point x="527" y="1218"/>
      <point x="527" y="1218"/>
      <point x="568" y="1218" type="qcurve" smooth="yes"/>
      <point x="609" y="1218"/>
      <point x="609" y="1218"/>
      <point x="609" y="1180" type="qcurve" smooth="yes"/>
      <point x="609" y="1142"/>
      <point x="609" y="1102"/>
      <point x="609" y="992" type="qcurve" smooth="yes"/>
      <point x="609" y="875"/>
      <point x="609" y="832"/>
      <point x="609" y="795" type="qcurve" smooth="yes"/>
      <point x="609" y="758"/>
      <point x="609" y="758"/>
    </contour>
    <contour>
      <point x="650" y="758" type="qcurve" smooth="yes"/>
      <point x="609" y="758"/>
      <point x="609" y="758"/>
      <point x="609" y="795" type="qcurve" smooth="yes"/>
      <point x="609" y="832"/>
      <point x="609" y="877"/>
      <point x="609" y="992" type="qcurve" smooth="yes"/>
      <point x="609" y="1103"/>
      <point x="609" y="1142"/>
      <point x="609" y="1180" type="qcurve" smooth="yes"/>
      <point x="609" y="1218"/>
      <point x="609" y="1218"/>
      <point x="650" y="1218" type="qcurve" smooth="yes"/>
      <point x="691" y="1218"/>
      <point x="691" y="1218"/>
      <point x="691" y="1180" type="qcurve" smooth="yes"/>
      <point x="691" y="1142"/>
      <point x="691" y="1102"/>
      <point x="691" y="992" type="qcurve" smooth="yes"/>
      <point x="691" y="875"/>
      <point x="691" y="832"/>
      <point x="691" y="795" type="qcurve" smooth="yes"/>
      <point x="691" y="758"/>
      <point x="691" y="758"/>
    </contour>
    <contour>
      <point x="568" y="145" type="qcurve" smooth="yes"/>
      <point x="527" y="145"/>
      <point x="527" y="145"/>
      <point x="527" y="182" type="qcurve" smooth="yes"/>
      <point x="527" y="219"/>
      <point x="527" y="265"/>
      <point x="527" y="380" type="qcurve" smooth="yes"/>
      <point x="527" y="491"/>
      <point x="527" y="536"/>
      <point x="527" y="573" type="qcurve" smooth="yes"/>
      <point x="527" y="610"/>
      <point x="527" y="610"/>
      <point x="568" y="610" type="qcurve" smooth="yes"/>
      <point x="609" y="610"/>
      <point x="609" y="610"/>
      <point x="609" y="573" type="qcurve" smooth="yes"/>
      <point x="609" y="536"/>
      <point x="609" y="490"/>
      <point x="609" y="380" type="qcurve" smooth="yes"/>
      <point x="609" y="263"/>
      <point x="609" y="219"/>
      <point x="609" y="182" type="qcurve" smooth="yes"/>
      <point x="609" y="145"/>
      <point x="609" y="145"/>
    </contour>
    <contour>
      <point x="650" y="145" type="qcurve" smooth="yes"/>
      <point x="609" y="145"/>
      <point x="609" y="145"/>
      <point x="609" y="182" type="qcurve" smooth="yes"/>
      <point x="609" y="219"/>
      <point x="609" y="265"/>
      <point x="609" y="380" type="qcurve" smooth="yes"/>
      <point x="609" y="491"/>
      <point x="609" y="536"/>
      <point x="609" y="573" type="qcurve" smooth="yes"/>
      <point x="609" y="610"/>
      <point x="609" y="610"/>
      <point x="650" y="610" type="qcurve"/>
      <point x="691" y="610"/>
      <point x="691" y="610"/>
      <point x="691" y="573" type="qcurve" smooth="yes"/>
      <point x="691" y="536"/>
      <point x="691" y="490"/>
      <point x="691" y="380" type="qcurve" smooth="yes"/>
      <point x="691" y="263"/>
      <point x="691" y="219"/>
      <point x="691" y="182" type="qcurve" smooth="yes"/>
      <point x="691" y="145"/>
      <point x="691" y="145"/>
    </contour>
    <contour>
      <point x="1038" y="610" type="qcurve" smooth="yes"/>
      <point x="999" y="610"/>
      <point x="929" y="610"/>
      <point x="883" y="610" type="qcurve" smooth="yes"/>
      <point x="838" y="610"/>
      <point x="744" y="610"/>
      <point x="708" y="610" type="qcurve" smooth="yes"/>
      <point x="691" y="610"/>
      <point x="691" y="610"/>
      <point x="691" y="647" type="qcurve" smooth="yes"/>
      <point x="691" y="684"/>
      <point x="691" y="684"/>
      <point x="708" y="684" type="qcurve" smooth="yes"/>
      <point x="744" y="684"/>
      <point x="839" y="684"/>
      <point x="883" y="684" type="qcurve" smooth="yes"/>
      <point x="929" y="684"/>
      <point x="999" y="684"/>
      <point x="1038" y="684" type="qcurve"/>
      <point x="1054" y="684"/>
      <point x="1054" y="684"/>
      <point x="1054" y="647" type="qcurve" smooth="yes"/>
      <point x="1054" y="610"/>
      <point x="1054" y="610"/>
    </contour>
    <contour>
      <point x="1038" y="684" type="qcurve" smooth="yes"/>
      <point x="999" y="684"/>
      <point x="929" y="684"/>
      <point x="883" y="684" type="qcurve" smooth="yes"/>
      <point x="839" y="684"/>
      <point x="744" y="684"/>
      <point x="708" y="684" type="qcurve" smooth="yes"/>
      <point x="691" y="684"/>
      <point x="691" y="684"/>
      <point x="691" y="721" type="qcurve" smooth="yes"/>
      <point x="691" y="758"/>
      <point x="691" y="758"/>
      <point x="708" y="758" type="qcurve" smooth="yes"/>
      <point x="746" y="758"/>
      <point x="839" y="758"/>
      <point x="883" y="758" type="qcurve" smooth="yes"/>
      <point x="929" y="758"/>
      <point x="999" y="758"/>
      <point x="1038" y="758" type="qcurve"/>
      <point x="1054" y="758"/>
      <point x="1054" y="758"/>
      <point x="1054" y="721" type="qcurve" smooth="yes"/>
      <point x="1054" y="684"/>
      <point x="1054" y="684"/>
    </contour>
    <contour>
      <point x="568" y="610" type="qcurve" smooth="yes"/>
      <point x="527" y="610"/>
      <point x="527" y="610"/>
      <point x="527" y="647" type="qcurve"/>
      <point x="527" y="684"/>
      <point x="527" y="684"/>
      <point x="568" y="684" type="qcurve" smooth="yes"/>
      <point x="609" y="684"/>
      <point x="609" y="684"/>
      <point x="609" y="647" type="qcurve"/>
      <point x="609" y="610"/>
      <point x="609" y="610"/>
    </contour>
    <contour>
      <point x="650" y="610" type="qcurve" smooth="yes"/>
      <point x="609" y="610"/>
      <point x="609" y="610"/>
      <point x="609" y="647" type="qcurve"/>
      <point x="609" y="684"/>
      <point x="609" y="684"/>
      <point x="650" y="684" type="qcurve" smooth="yes"/>
      <point x="691" y="684"/>
      <point x="691" y="684"/>
      <point x="691" y="647" type="qcurve"/>
      <point x="691" y="610"/>
      <point x="691" y="610"/>
    </contour>
    <contour>
      <point x="568" y="684" type="qcurve" smooth="yes"/>
      <point x="527" y="684"/>
      <point x="527" y="684"/>
      <point x="527" y="721" type="qcurve"/>
      <point x="527" y="758"/>
      <point x="527" y="758"/>
      <point x="568" y="758" type="qcurve" smooth="yes"/>
      <point x="609" y="758"/>
      <point x="609" y="758"/>
      <point x="609" y="721" type="qcurve"/>
      <point x="609" y="684"/>
      <point x="609" y="684"/>
    </contour>
    <contour>
      <point x="650" y="684" type="qcurve" smooth="yes"/>
      <point x="609" y="684"/>
      <point x="609" y="684"/>
      <point x="609" y="721" type="qcurve"/>
      <point x="609" y="758"/>
      <point x="609" y="758"/>
      <point x="650" y="758" type="qcurve" smooth="yes"/>
      <point x="691" y="758"/>
      <point x="691" y="758"/>
      <point x="691" y="721" type="qcurve"/>
      <point x="691" y="684"/>
      <point x="691" y="684"/>
    </contour>
    <contour>
      <point x="568" y="0" type="qcurve" smooth="yes"/>
      <point x="527" y="0"/>
      <point x="527" y="0"/>
      <point x="527" y="36" type="qcurve"/>
      <point x="527" y="72"/>
      <point x="527" y="72"/>
      <point x="568" y="72" type="qcurve" smooth="yes"/>
      <point x="609" y="72"/>
      <point x="609" y="72"/>
      <point x="609" y="36" type="qcurve"/>
      <point x="609" y="0"/>
      <point x="609" y="0"/>
    </contour>
    <contour>
      <point x="650" y="0" type="qcurve" smooth="yes"/>
      <point x="609" y="0"/>
      <point x="609" y="0"/>
      <point x="609" y="36" type="qcurve"/>
      <point x="609" y="72"/>
      <point x="609" y="72"/>
      <point x="650" y="72" type="qcurve" smooth="yes"/>
      <point x="691" y="72"/>
      <point x="691" y="72"/>
      <point x="691" y="36" type="qcurve"/>
      <point x="691" y="0"/>
      <point x="691" y="0"/>
    </contour>
    <contour>
      <point x="568" y="72" type="qcurve" smooth="yes"/>
      <point x="527" y="72"/>
      <point x="527" y="72"/>
      <point x="527" y="109" type="qcurve"/>
      <point x="527" y="145"/>
      <point x="527" y="145"/>
      <point x="568" y="145" type="qcurve" smooth="yes"/>
      <point x="609" y="145"/>
      <point x="609" y="145"/>
      <point x="609" y="109" type="qcurve"/>
      <point x="609" y="72"/>
      <point x="609" y="72"/>
    </contour>
    <contour>
      <point x="650" y="72" type="qcurve" smooth="yes"/>
      <point x="609" y="72"/>
      <point x="609" y="72"/>
      <point x="609" y="109" type="qcurve"/>
      <point x="609" y="145"/>
      <point x="609" y="145"/>
      <point x="650" y="145" type="qcurve" smooth="yes"/>
      <point x="691" y="145"/>
      <point x="691" y="145"/>
      <point x="691" y="109" type="qcurve"/>
      <point x="691" y="72"/>
      <point x="691" y="72"/>
    </contour>
    <contour>
      <point x="568" y="1218" type="qcurve" smooth="yes"/>
      <point x="527" y="1218"/>
      <point x="527" y="1218"/>
      <point x="527" y="1256" type="qcurve"/>
      <point x="527" y="1294"/>
      <point x="527" y="1294"/>
      <point x="568" y="1294" type="qcurve" smooth="yes"/>
      <point x="609" y="1294"/>
      <point x="609" y="1294"/>
      <point x="609" y="1256" type="qcurve"/>
      <point x="609" y="1218"/>
      <point x="609" y="1218"/>
    </contour>
    <contour>
      <point x="650" y="1218" type="qcurve" smooth="yes"/>
      <point x="609" y="1218"/>
      <point x="609" y="1218"/>
      <point x="609" y="1256" type="qcurve"/>
      <point x="609" y="1294"/>
      <point x="609" y="1294"/>
      <point x="650" y="1294" type="qcurve" smooth="yes"/>
      <point x="691" y="1294"/>
      <point x="691" y="1294"/>
      <point x="691" y="1256" type="qcurve"/>
      <point x="691" y="1218"/>
      <point x="691" y="1218"/>
    </contour>
    <contour>
      <point x="568" y="1294" type="qcurve" smooth="yes"/>
      <point x="527" y="1294"/>
      <point x="527" y="1294"/>
      <point x="527" y="1330" type="qcurve"/>
      <point x="527" y="1368"/>
      <point x="527" y="1368"/>
      <point x="568" y="1368" type="qcurve" smooth="yes"/>
      <point x="609" y="1368"/>
      <point x="609" y="1368"/>
      <point x="609" y="1330" type="qcurve"/>
      <point x="609" y="1294"/>
      <point x="609" y="1294"/>
    </contour>
    <contour>
      <point x="650" y="1294" type="qcurve" smooth="yes"/>
      <point x="609" y="1294"/>
      <point x="609" y="1294"/>
      <point x="609" y="1330" type="qcurve"/>
      <point x="609" y="1368"/>
      <point x="609" y="1368"/>
      <point x="650" y="1368" type="qcurve" smooth="yes"/>
      <point x="691" y="1368"/>
      <point x="691" y="1368"/>
      <point x="691" y="1330" type="qcurve"/>
      <point x="691" y="1294"/>
      <point x="691" y="1294"/>
    </contour>
    <contour>
      <point x="1095" y="610" type="qcurve" smooth="yes"/>
      <point x="1054" y="610"/>
      <point x="1054" y="610"/>
      <point x="1054" y="647" type="qcurve"/>
      <point x="1054" y="684"/>
      <point x="1054" y="684"/>
      <point x="1095" y="684" type="qcurve" smooth="yes"/>
      <point x="1136" y="684"/>
      <point x="1136" y="684"/>
      <point x="1136" y="647" type="qcurve"/>
      <point x="1136" y="610"/>
      <point x="1136" y="610"/>
    </contour>
    <contour>
      <point x="1177" y="610" type="qcurve" smooth="yes"/>
      <point x="1136" y="610"/>
      <point x="1136" y="610"/>
      <point x="1136" y="647" type="qcurve"/>
      <point x="1136" y="684"/>
      <point x="1136" y="684"/>
      <point x="1177" y="684" type="qcurve" smooth="yes"/>
      <point x="1218" y="684"/>
      <point x="1218" y="684"/>
      <point x="1218" y="647" type="qcurve"/>
      <point x="1218" y="610"/>
      <point x="1218" y="610"/>
    </contour>
    <contour>
      <point x="1095" y="684" type="qcurve" smooth="yes"/>
      <point x="1054" y="684"/>
      <point x="1054" y="684"/>
      <point x="1054" y="721" type="qcurve"/>
      <point x="1054" y="758"/>
      <point x="1054" y="758"/>
      <point x="1095" y="758" type="qcurve" smooth="yes"/>
      <point x="1136" y="758"/>
      <point x="1136" y="758"/>
      <point x="1136" y="721" type="qcurve"/>
      <point x="1136" y="684"/>
      <point x="1136" y="684"/>
    </contour>
    <contour>
      <point x="1177" y="684" type="qcurve" smooth="yes"/>
      <point x="1136" y="684"/>
      <point x="1136" y="684"/>
      <point x="1136" y="721" type="qcurve"/>
      <point x="1136" y="758"/>
      <point x="1136" y="758"/>
      <point x="1177" y="758" type="qcurve" smooth="yes"/>
      <point x="1218" y="758"/>
      <point x="1218" y="758"/>
      <point x="1218" y="721" type="qcurve"/>
      <point x="1218" y="684"/>
      <point x="1218" y="684"/>
    </contour>
    <contour>
      <point x="41" y="610" type="qcurve" smooth="yes"/>
      <point x="0" y="610"/>
      <point x="0" y="610"/>
      <point x="0" y="647" type="qcurve"/>
      <point x="0" y="684"/>
      <point x="0" y="684"/>
      <point x="41" y="684" type="qcurve" smooth="yes"/>
      <point x="82" y="684"/>
      <point x="82" y="684"/>
      <point x="82" y="647" type="qcurve"/>
      <point x="82" y="610"/>
      <point x="82" y="610"/>
    </contour>
    <contour>
      <point x="123" y="610" type="qcurve" smooth="yes"/>
      <point x="82" y="610"/>
      <point x="82" y="610"/>
      <point x="82" y="647" type="qcurve"/>
      <point x="82" y="684"/>
      <point x="82" y="684"/>
      <point x="123" y="684" type="qcurve" smooth="yes"/>
      <point x="164" y="684"/>
      <point x="164" y="684"/>
      <point x="164" y="647" type="qcurve"/>
      <point x="164" y="610"/>
      <point x="164" y="610"/>
    </contour>
    <contour>
      <point x="41" y="684" type="qcurve" smooth="yes"/>
      <point x="0" y="684"/>
      <point x="0" y="684"/>
      <point x="0" y="721" type="qcurve"/>
      <point x="0" y="758"/>
      <point x="0" y="758"/>
      <point x="41" y="758" type="qcurve" smooth="yes"/>
      <point x="82" y="758"/>
      <point x="82" y="758"/>
      <point x="82" y="721" type="qcurve"/>
      <point x="82" y="684"/>
      <point x="82" y="684"/>
    </contour>
    <contour>
      <point x="123" y="684" type="qcurve" smooth="yes"/>
      <point x="82" y="684"/>
      <point x="82" y="684"/>
      <point x="82" y="721" type="qcurve"/>
      <point x="82" y="758"/>
      <point x="82" y="758"/>
      <point x="123" y="758" type="qcurve" smooth="yes"/>
      <point x="164" y="758"/>
      <point x="164" y="758"/>
      <point x="164" y="721" type="qcurve"/>
      <point x="164" y="684"/>
      <point x="164" y="684"/>
    </contour>
  </outline>
</glyph>
<glyph name="RoundDualyNE" format="1">
  <advance width="653"/>
  <outline>
    <contour>
      <point x="0" y="1355" type="qcurve"/>
      <point x="0" y="1324"/>
      <point x="0" y="1324"/>
      <point x="47" y="1318" type="qcurve"/>
      <point x="152" y="1299"/>
      <point x="296" y="1219"/>
      <point x="358" y="1162" type="qcurve"/>
      <point x="438" y="1090"/>
      <point x="544" y="906"/>
      <point x="563" y="799" type="qcurve"/>
      <point x="568" y="760"/>
      <point x="568" y="760"/>
      <point x="612" y="760" type="qcurve"/>
      <point x="653" y="760"/>
      <point x="653" y="760"/>
      <point x="649" y="803" type="qcurve"/>
      <point x="632" y="928"/>
      <point x="505" y="1145"/>
      <point x="412" y="1225" type="qcurve" smooth="yes"/>
      <point x="331" y="1296"/>
      <point x="149" y="1381"/>
      <point x="48" y="1395" type="qcurve"/>
      <point x="0" y="1400"/>
      <point x="0" y="1400"/>
    </contour>
    <contour>
      <point x="563" y="799" type="qcurve"/>
      <point x="544" y="906"/>
      <point x="438" y="1090"/>
      <point x="358" y="1162" type="qcurve"/>
      <point x="296" y="1219"/>
      <point x="152" y="1299"/>
      <point x="47" y="1318" type="qcurve"/>
      <point x="0" y="1324"/>
      <point x="0" y="1324"/>
      <point x="0" y="1284" type="qcurve"/>
      <point x="0" y="1244"/>
      <point x="0" y="1244"/>
      <point x="41" y="1239" type="qcurve"/>
      <point x="125" y="1224"/>
      <point x="244" y="1163"/>
      <point x="309" y="1102" type="qcurve" smooth="yes"/>
      <point x="375" y="1040"/>
      <point x="462" y="883"/>
      <point x="477" y="796" type="qcurve"/>
      <point x="483" y="760"/>
      <point x="483" y="760"/>
      <point x="527" y="760" type="qcurve"/>
      <point x="568" y="760"/>
      <point x="568" y="760"/>
    </contour>
  </outline>
</glyph>
<glyph name="RoundDualyNW" format="1">
  <advance width="653"/>
  <outline>
    <contour>
      <point x="653" y="1361" type="qcurve"/>
      <point x="653" y="1401"/>
      <point x="653" y="1401"/>
      <point x="610" y="1398" type="qcurve"/>
      <point x="485" y="1383"/>
      <point x="284" y="1276"/>
      <point x="201" y="1195" type="qcurve" smooth="yes"/>
      <point x="119" y="1115"/>
      <point x="18" y="906"/>
      <point x="4" y="802" type="qcurve"/>
      <point x="0" y="760"/>
      <point x="0" y="760"/>
      <point x="41" y="760" type="qcurve"/>
      <point x="83" y="760"/>
      <point x="83" y="760"/>
      <point x="88" y="800" type="qcurve"/>
      <point x="104" y="894"/>
      <point x="190" y="1077"/>
      <point x="260" y="1146" type="qcurve"/>
      <point x="330" y="1215"/>
      <point x="506" y="1306"/>
      <point x="611" y="1319" type="qcurve"/>
      <point x="653" y="1323"/>
      <point x="653" y="1323"/>
    </contour>
    <contour>
      <point x="88" y="800" type="qcurve"/>
      <point x="83" y="760"/>
      <point x="83" y="760"/>
      <point x="126" y="760" type="qcurve"/>
      <point x="170" y="760"/>
      <point x="170" y="760"/>
      <point x="176" y="797" type="qcurve"/>
      <point x="189" y="878"/>
      <point x="257" y="1033"/>
      <point x="313" y="1091" type="qcurve" smooth="yes"/>
      <point x="369" y="1149"/>
      <point x="523" y="1224"/>
      <point x="612" y="1239" type="qcurve"/>
      <point x="653" y="1244"/>
      <point x="653" y="1244"/>
      <point x="653" y="1286" type="qcurve"/>
      <point x="653" y="1323"/>
      <point x="653" y="1323"/>
      <point x="611" y="1319" type="qcurve"/>
      <point x="506" y="1306"/>
      <point x="330" y="1215"/>
      <point x="260" y="1146" type="qcurve"/>
      <point x="190" y="1077"/>
      <point x="104" y="894"/>
    </contour>
  </outline>
</glyph>
<glyph name="TopCrownW" format="1">
  <advance width="500"/>
  <outline>
    <contour>
      <point x="273" y="302" type="qcurve"/>
      <point x="300" y="302"/>
      <point x="300" y="302"/>
      <point x="314" y="263" type="qcurve"/>
      <point x="329" y="222"/>
      <point x="329" y="222"/>
      <point x="281" y="222" type="qcurve"/>
      <point x="252" y="222"/>
      <point x="252" y="222"/>
      <point x="252" y="263" type="qcurve"/>
      <point x="252" y="302"/>
      <point x="252" y="302"/>
    </contour>
    <contour>
      <point x="281" y="222" type="qcurve"/>
      <point x="329" y="222"/>
      <point x="329" y="222"/>
      <point x="343" y="187" type="qcurve"/>
      <point x="356" y="150"/>
      <point x="356" y="150"/>
      <point x="315" y="150" type="qcurve"/>
      <point x="276" y="150"/>
      <point x="276" y="150"/>
      <point x="264" y="184" type="qcurve"/>
      <point x="252" y="222"/>
      <point x="252" y="222"/>
    </contour>
    <contour>
      <point x="231" y="302" type="qcurve"/>
      <point x="252" y="302"/>
      <point x="252" y="302"/>
      <point x="252" y="263" type="qcurve"/>
      <point x="252" y="222"/>
      <point x="252" y="222"/>
      <point x="223" y="222" type="qcurve"/>
      <point x="175" y="222"/>
      <point x="175" y="222"/>
      <point x="190" y="263" type="qcurve"/>
      <point x="204" y="302"/>
      <point x="204" y="302"/>
    </contour>
    <contour>
      <point x="223" y="222" type="qcurve"/>
      <point x="252" y="222"/>
      <point x="252" y="222"/>
      <point x="240" y="184" type="qcurve"/>
      <point x="228" y="150"/>
      <point x="228" y="150"/>
      <point x="189" y="150" type="qcurve"/>
      <point x="148" y="150"/>
      <point x="148" y="150"/>
      <point x="161" y="187" type="qcurve"/>
      <point x="175" y="222"/>
      <point x="175" y="222"/>
    </contour>
    <contour>
      <point x="264" y="184" type="qcurve"/>
      <point x="252" y="222"/>
      <point x="252" y="222"/>
      <point x="240" y="184" type="qcurve"/>
      <point x="228" y="150"/>
      <point x="228" y="150"/>
      <point x="241" y="74" type="qcurve"/>
      <point x="252" y="0"/>
      <point x="252" y="0"/>
      <point x="263" y="74" type="qcurve"/>
      <point x="276" y="150"/>
      <point x="276" y="150"/>
    </contour>
  </outline>
</glyph>
<glyph name="TopCurvedElement" format="1">
  <advance width="656"/>
  <outline>
    <contour>
      <point x="289" y="1215" type="qcurve"/>
      <point x="328" y="1198"/>
      <point x="328" y="1198"/>
      <point x="328" y="1241" type="qcurve"/>
      <point x="328" y="1282"/>
      <point x="328" y="1282"/>
      <point x="288" y="1296" type="qcurve"/>
      <point x="246" y="1308"/>
      <point x="246" y="1308"/>
      <point x="246" y="1268" type="qcurve"/>
      <point x="246" y="1230"/>
      <point x="246" y="1230"/>
    </contour>
    <contour>
      <point x="288" y="1296" type="qcurve"/>
      <point x="328" y="1282"/>
      <point x="328" y="1282"/>
      <point x="328" y="1324" type="qcurve"/>
      <point x="328" y="1365"/>
      <point x="328" y="1365"/>
      <point x="287" y="1377" type="qcurve"/>
      <point x="246" y="1387"/>
      <point x="246" y="1387"/>
      <point x="246" y="1344" type="qcurve"/>
      <point x="246" y="1308"/>
      <point x="246" y="1308"/>
    </contour>
    <contour>
      <point x="367" y="1177" type="qcurve"/>
      <point x="410" y="1149"/>
      <point x="410" y="1149"/>
      <point x="410" y="1207" type="qcurve" smooth="yes"/>
      <point x="410" y="1245"/>
      <point x="410" y="1245"/>
      <point x="369" y="1265" type="qcurve"/>
      <point x="328" y="1282"/>
      <point x="328" y="1282"/>
      <point x="328" y="1241" type="qcurve"/>
      <point x="328" y="1198"/>
      <point x="328" y="1198"/>
    </contour>
    <contour>
      <point x="369" y="1265" type="qcurve"/>
      <point x="410" y="1245"/>
      <point x="410" y="1245"/>
      <point x="410" y="1292" type="qcurve"/>
      <point x="410" y="1331"/>
      <point x="410" y="1331"/>
      <point x="369" y="1349" type="qcurve"/>
      <point x="328" y="1365"/>
      <point x="328" y="1365"/>
      <point x="328" y="1324" type="qcurve"/>
      <point x="328" y="1282"/>
      <point x="328" y="1282"/>
    </contour>
  </outline>
</glyph>
